Coordinates
version=1
nRows=15
nColumns=33
inDegrees=yes

Units are S.I. units (second, meters, Newtons, ...)
Angles are in degrees.

endheader
time	ground_thorax_rot_x	ground_thorax_rot_y	ground_thorax_rot_z	ground_thorax_tx	ground_thorax_ty	ground_thorax_tz	clav_prot_r	clav_elev_r	scapula_abduction_r	scapula_elevation_r	scapula_upward_rot_r	scapula_winging_r	shoulder_elv_r	plane_of_elev_r	axial_rot_r	elbow_flexion_r	pro_sup_r	wrist_flex_r	wrist_dev_r	clav_prot_l	clav_elev_l	scapula_abduction_l	scapula_elevation_l	scapula_upward_rot_l	scapula_winging_l	shoulder_elv_l	plane_of_elev_l	axial_rot_l	elbow_flexion_l	pro_sup_l	wrist_flex_l	wrist_dev_l	
6.4300	-2.093955	3.552622	12.075372	-0.114146	1.024201	0.011691	10.700233	-15.796247	21.566080	-10.410140	5.736667	-2.554405	-9.366794	-64.452998	120.340335	-69.171219	-163.363925	6.123116	3.826102	16.871619	-7.076547	-24.328295	-13.564533	-32.735554	4.855855	59.198454	-12.101535	9.286606	50.640836	12.914202	18.162838	-11.125818	
6.4400	-2.066372	3.472570	12.186892	-0.114688	1.024317	0.011624	10.490272	-15.842519	20.938522	-10.264571	5.213338	-2.288753	-9.803751	-65.044174	120.096955	-70.573541	-163.459623	6.374712	3.733483	16.524213	-6.937283	-23.759555	-13.823569	-32.973493	4.540430	59.339680	-12.845813	9.220624	52.201720	12.707819	18.312568	-11.077259	
6.4500	-2.036150	3.386969	12.292298	-0.115177	1.024515	0.011559	10.277310	-15.914165	20.304227	-10.139124	4.684834	-2.005155	-10.253752	-65.653093	119.807390	-71.958334	-163.502666	6.626767	3.627915	16.151693	-6.806001	-23.144061	-14.066709	-33.189354	4.203877	59.474914	-13.620809	9.150466	53.763903	12.525037	18.484695	-11.020115	
6.4600	-1.992421	3.295241	12.374217	-0.115618	1.024750	0.011508	10.066745	-15.962268	19.695257	-10.003607	4.191091	-1.744400	-10.720043	-66.252328	119.495609	-73.312754	-163.455189	6.887029	3.510740	15.768393	-6.659502	-22.505600	-14.309068	-33.372757	3.862521	59.560977	-14.376640	9.126348	55.289753	12.381052	18.662193	-10.995162	
6.4700	-1.933922	3.199475	12.433587	-0.116016	1.025016	0.011475	9.862374	-15.982397	19.116009	-9.852905	3.729398	-1.510963	-11.198313	-66.832522	119.159150	-74.628886	-163.329623	7.154008	3.380000	15.379925	-6.499449	-21.853989	-14.551064	-33.528287	3.520761	59.600677	-15.113062	9.138453	56.771565	12.271491	18.839105	-11.004016	
6.4800	-1.859424	3.100122	12.478828	-0.116390	1.025283	0.011468	9.668994	-15.952504	18.579229	-9.669904	3.308438	-1.322639	-11.696970	-67.385023	118.815017	-75.894544	-163.135687	7.429061	3.234946	14.997024	-6.317370	-21.208057	-14.802750	-33.662029	3.188056	59.580455	-15.817934	9.195671	58.189598	12.191377	18.998390	-11.059949	
6.4900	-1.774127	3.000355	12.521768	-0.116750	1.025567	0.011480	9.486734	-15.891020	18.073011	-9.463932	2.907798	-1.164073	-12.210859	-67.915487	118.455378	-77.100504	-162.920857	7.705730	3.071272	14.620490	-6.125820	-20.570047	-15.058580	-33.785892	2.862463	59.524000	-16.512890	9.264525	59.546047	12.121208	19.134567	-11.140216	
6.5000	-1.683572	2.893708	12.560110	-0.117077	1.025903	0.011502	9.318714	-15.834831	17.597096	-9.265473	2.517768	-1.014165	-12.775606	-68.447291	118.026927	-78.244945	-162.665430	7.993277	2.859402	14.227315	-5.928188	-19.895050	-15.301121	-33.867627	2.527337	59.443935	-17.234480	9.307140	60.839499	12.066105	19.253567	-11.227696	
6.5100	-1.587172	2.782826	12.594795	-0.117373	1.026272	0.011532	9.157686	-15.769598	17.145273	-9.066071	2.149913	-0.878016	-13.381548	-68.975030	117.556913	-79.316954	-162.411251	8.288256	2.606530	13.826111	-5.719471	-19.199709	-15.540893	-33.920168	2.188834	59.340579	-17.968616	9.321310	62.063815	12.011516	19.342598	-11.318386	
6.5200	-1.483752	2.669982	12.626377	-0.117642	1.026671	0.011569	9.003680	-15.693078	16.717032	-8.863463	1.803558	-0.756420	-14.028172	-69.497853	117.048958	-80.309991	-162.169691	8.593745	2.309068	13.419177	-5.501225	-18.488236	-15.777822	-33.946555	1.848517	59.216173	-18.713942	9.300278	63.218360	11.954284	19.398568	-11.415206	
6.5300	-1.371428	2.559879	12.667117	-0.117902	1.027053	0.011607	8.853550	-15.570167	16.312354	-8.628954	1.488315	-0.668766	-14.703375	-70.006136	116.551820	-81.216875	-161.984933	8.914952	1.973787	13.027184	-5.266334	-17.800277	-16.030936	-33.974817	1.521504	59.065331	-19.450206	9.253644	64.298541	11.880469	19.403930	-11.537268	
6.5400	-1.256416	2.447319	12.713976	-0.118145	1.027444	0.011648	8.712568	-15.434897	15.928730	-8.386234	1.184031	-0.594490	-15.432160	-70.514819	116.018447	-82.050746	-161.841405	9.269833	1.569836	12.633937	-5.025388	-17.104490	-16.281595	-33.984461	1.194916	58.913528	-20.218838	9.141347	65.316253	11.796735	19.369691	-11.679466	
6.5500	-1.141287	2.331510	12.757564	-0.118363	1.027830	0.011689	8.581129	-15.274639	15.578345	-8.132466	0.912892	-0.545824	-16.269065	-71.014489	115.425431	-82.802492	-161.780662	9.703119	1.035792	12.232743	-4.772170	-16.385283	-16.525312	-33.953873	0.866801	58.763409	-21.026536	8.942043	66.264640	11.685373	19.255547	-11.870956	
6.5600	-1.025103	2.212503	12.791040	-0.118563	1.028206	0.011731	8.460873	-15.092811	15.261919	-7.869837	0.672045	-0.520676	-17.199636	-71.507293	114.782435	-83.480721	-161.787252	10.210445	0.391566	11.828856	-4.510323	-15.653703	-16.764900	-33.896244	0.539693	58.621897	-21.864829	8.665120	67.156514	11.552774	19.069059	-12.110095	
6.5700	-0.908500	2.094274	12.807777	-0.118750	1.028566	0.011762	8.352251	-14.891573	14.979616	-7.600265	0.460902	-0.517723	-18.220295	-71.995291	114.091040	-84.086148	-161.845778	10.801562	-0.361335	11.424328	-4.243635	-14.914487	-17.000360	-33.819220	0.214558	58.499858	-22.726901	8.312562	68.001720	11.405523	18.805771	-12.404059	
